<svg width="300" height="300" viewBox="0 0 300 300" fill="none" xmlns="http://www.w3.org/2000/svg">
<g clip-path="url(#clip0_2639_14)">
<path d="M87.8762 1.04906C71.9162 1.80206 61.0172 4.34906 51.4892 8.09306C41.6282 11.9361 33.2702 17.0931 24.9542 25.4391C16.6382 33.7851 11.5172 42.1491 7.70124 52.0251C4.00824 61.5741 1.50624 72.4821 0.801243 88.4511C0.0962433 104.42 -0.0597568 109.553 0.0182432 150.287C0.0962432 191.021 0.276243 196.127 1.05024 212.129C1.81224 228.086 4.35024 238.982 8.09424 248.513C11.9432 258.374 17.0942 266.729 25.4432 275.048C33.7922 283.367 42.1502 288.476 52.0502 292.298C61.5902 295.985 72.5012 298.499 88.4672 299.198C104.433 299.897 109.572 300.059 150.294 299.981C191.016 299.903 196.143 299.723 212.142 298.964C228.141 298.205 238.98 295.649 248.514 291.923C258.375 288.065 266.736 282.923 275.049 274.571C283.362 266.219 288.48 257.849 292.293 247.967C295.989 238.427 298.5 227.516 299.193 211.562C299.892 195.551 300.057 190.439 299.979 149.711C299.901 108.983 299.718 103.877 298.959 87.8811C298.2 71.8851 295.659 61.0221 291.918 51.4851C288.063 41.6241 282.918 33.2751 274.572 24.9501C266.226 16.6251 257.85 11.5101 247.971 7.70606C238.425 4.01306 227.52 1.49606 211.554 0.806064C195.588 0.116064 190.449 -0.0609358 149.712 0.0170642C108.975 0.0950642 103.875 0.269064 87.8762 1.04906ZM89.6282 272.213C75.0032 271.577 67.0622 269.147 61.7702 267.113C54.7622 264.413 49.7702 261.149 44.4962 255.926C39.2222 250.703 35.9822 245.693 33.2462 238.7C31.1912 233.408 28.7162 225.476 28.0322 210.851C27.2882 195.044 27.1322 190.298 27.0452 150.251C26.9582 110.204 27.1112 105.464 27.8042 89.6511C28.4282 75.0381 30.8732 67.0881 32.9042 61.7991C35.6042 54.7821 38.8562 49.7991 44.0912 44.5281C49.3262 39.2571 54.3212 36.0111 61.3202 33.2751C66.6062 31.2111 74.5382 28.7571 89.1572 28.0611C104.976 27.3111 109.716 27.1611 149.757 27.0741C189.798 26.9871 194.55 27.1371 210.375 27.8331C224.988 28.4691 232.941 30.8901 238.224 32.9331C245.235 35.6331 250.224 38.8761 255.495 44.1201C260.766 49.3641 264.015 54.3411 266.751 61.3551C268.818 66.6261 271.272 74.5551 271.962 89.1831C272.715 105.002 272.886 109.745 272.958 149.783C273.03 189.821 272.889 194.576 272.196 210.383C271.557 225.008 269.133 232.952 267.096 238.25C264.396 245.255 261.141 250.25 255.903 255.518C250.665 260.786 245.676 264.032 238.674 266.768C233.394 268.829 225.453 271.289 210.846 271.985C195.027 272.729 190.287 272.885 150.231 272.972C110.175 273.059 105.45 272.897 89.6312 272.213M211.911 69.8301C211.917 73.3904 212.979 76.869 214.962 79.8259C216.945 82.7828 219.76 85.0852 223.052 86.4419C226.344 87.7986 229.964 88.1487 233.454 87.4478C236.945 86.747 240.15 85.0267 242.662 82.5046C245.175 79.9825 246.884 76.7718 247.572 73.2786C248.26 69.7854 247.897 66.1666 246.528 62.8799C245.159 59.5932 242.846 56.7862 239.882 54.814C236.918 52.8418 233.436 51.793 229.875 51.8001C225.102 51.8096 220.529 53.7144 217.16 57.0955C213.791 60.4766 211.903 65.0572 211.911 69.8301M72.9812 150.149C73.0652 192.689 107.613 227.096 150.144 227.015C192.675 226.934 227.106 192.389 227.025 149.849C226.944 107.309 192.387 72.8931 149.85 72.9771C107.313 73.0611 72.9002 107.615 72.9812 150.149ZM99.9992 150.095C99.9797 140.206 102.893 130.533 108.371 122.299C113.849 114.066 121.645 107.642 130.774 103.839C139.903 100.037 149.955 99.0266 159.658 100.937C169.361 102.847 178.28 107.591 185.286 114.57C192.293 121.549 197.072 130.449 199.021 140.144C200.969 149.84 199.999 159.895 196.233 169.039C192.466 178.183 186.073 186.005 177.862 191.515C169.65 197.026 159.988 199.977 150.099 199.997C143.533 200.011 137.028 198.731 130.956 196.23C124.884 193.73 119.365 190.058 114.712 185.424C110.06 180.79 106.366 175.285 103.842 169.223C101.317 163.161 100.011 156.662 99.9992 150.095" fill="#A508F2"/>
</g>
<defs>
<clipPath id="clip0_2639_14">
<rect width="300" height="300" fill="white"/>
</clipPath>
</defs>
</svg>
