<svg width="65" height="39" viewBox="0 0 65 39" fill="none" xmlns="http://www.w3.org/2000/svg">
<path d="M32.1063 0.191406C23.5962 0.191406 18.276 4.44726 16.1489 12.9574C19.3403 8.70151 23.0632 7.10577 27.3191 8.17013C29.7478 8.77651 31.4824 10.5382 33.4036 12.4882C36.5313 15.6637 40.1536 19.3403 48.0637 19.3403C56.5739 19.3403 61.8941 15.0845 64.0212 6.57438C60.8297 10.8302 57.1068 12.426 52.851 11.3616C50.4239 10.7552 48.6877 8.99353 46.7664 7.04353C43.6387 3.868 40.0164 0.191406 32.1063 0.191406ZM16.1489 19.3403C7.63875 19.3403 2.31853 23.5962 0.191406 32.1063C3.3829 27.8504 7.10577 26.2547 11.3616 27.3191C13.7887 27.9254 15.5249 29.6871 17.4462 31.6371C20.5739 34.8127 24.1962 38.4893 32.1063 38.4893C40.6164 38.4893 45.9366 34.2334 48.0637 25.7233C44.8723 29.9792 41.1494 31.5749 36.8935 30.5106C34.4664 29.9042 32.7302 28.1425 30.809 26.1925C27.6813 23.0169 24.059 19.3403 16.1489 19.3403Z" fill="#16BDCA"/>
</svg>
