<svg width="300" height="46" viewBox="0 0 300 46" fill="none" xmlns="http://www.w3.org/2000/svg">
<path d="M35.1063 4.18555C26.5962 4.18555 21.276 8.4414 19.1489 16.9515C22.3403 12.6957 26.0632 11.0999 30.3191 12.1643C32.7478 12.7707 34.4824 14.5324 36.4036 16.4824C39.5313 19.6579 43.1536 23.3345 51.0637 23.3345C59.5739 23.3345 64.8941 19.0786 67.0212 10.5685C63.8297 14.8244 60.1068 16.4201 55.851 15.3558C53.4239 14.7494 51.6877 12.9877 49.7664 11.0377C46.6387 7.86214 43.0164 4.18555 35.1063 4.18555ZM19.1489 23.3345C10.6387 23.3345 5.31853 27.5903 3.19141 36.1004C6.3829 31.8446 10.1058 30.2488 14.3616 31.3132C16.7887 31.9196 18.5249 33.6813 20.4462 35.6313C23.5739 38.8068 27.1962 42.4834 35.1063 42.4834C43.6164 42.4834 48.9366 38.2276 51.0637 29.7175C47.8723 33.9733 44.1494 35.5691 39.8935 34.5047C37.4664 33.8983 35.7302 32.1366 33.809 30.1866C30.6813 27.0111 27.059 23.3345 19.1489 23.3345Z" fill="#16BDCA"/>
<path d="M96.1591 18.7394V13.7606H90.2229V7.05851L85.0527 8.59043V13.7606H80.6484V18.7394H85.0527V30.2287C85.0527 36.4521 88.2123 38.6543 96.1591 37.6968V33.0532C92.2335 33.2447 90.2229 33.2926 90.2229 30.2287V18.7394H96.1591V18.7394ZM118.823 13.7606V17.1596C117.004 14.6702 114.18 13.1383 110.446 13.1383C103.935 13.1383 98.5256 18.5957 98.5256 25.7287C98.5256 32.8138 103.935 38.3191 110.446 38.3191C114.18 38.3191 117.004 36.7872 118.823 34.25V37.6968H123.994V13.7606H118.823ZM111.26 33.3883C106.951 33.3883 103.696 30.1809 103.696 25.7287C103.696 21.2766 106.951 18.0691 111.26 18.0691C115.568 18.0691 118.823 21.2766 118.823 25.7287C118.823 30.1809 115.568 33.3883 111.26 33.3883ZM132.606 10.1702C134.425 10.1702 135.909 8.6383 135.909 6.86702C135.909 5.04787 134.425 3.56383 132.606 3.56383C130.787 3.56383 129.303 5.04787 129.303 6.86702C129.303 8.6383 130.787 10.1702 132.606 10.1702ZM130.021 37.6968H135.191V13.7606H130.021V37.6968ZM141.194 37.6968H146.364V2.75H141.194V37.6968ZM179.942 13.7606L175.251 30.2766L170.272 13.7606H165.341L160.314 30.2766L155.671 13.7606H150.213L157.729 37.6968H162.804L167.83 21.5638L172.809 37.6968H177.884L185.399 13.7606H179.942V13.7606ZM191.792 10.1702C193.611 10.1702 195.095 8.6383 195.095 6.86702C195.095 5.04787 193.611 3.56383 191.792 3.56383C189.973 3.56383 188.489 5.04787 188.489 6.86702C188.489 8.6383 189.973 10.1702 191.792 10.1702ZM189.207 37.6968H194.377V13.7606H189.207V37.6968ZM212.971 13.1383C209.715 13.1383 207.13 14.3351 205.551 16.8245V13.7606H200.38V37.6968H205.551V24.867C205.551 19.984 208.231 17.9734 211.63 17.9734C214.886 17.9734 216.992 19.8883 216.992 23.5266V37.6968H222.162V23C222.162 16.7766 218.332 13.1383 212.971 13.1383V13.1383ZM246.686 4.18617V17.1596C244.867 14.6702 242.042 13.1383 238.308 13.1383C231.797 13.1383 226.388 18.5957 226.388 25.7287C226.388 32.8138 231.797 38.3191 238.308 38.3191C242.042 38.3191 244.867 36.7872 246.686 34.25V37.6968H251.856V4.18617H246.686ZM239.122 33.3883C234.813 33.3883 231.558 30.1809 231.558 25.7287C231.558 21.2766 234.813 18.0691 239.122 18.0691C243.43 18.0691 246.686 21.2766 246.686 25.7287C246.686 30.1809 243.43 33.3883 239.122 33.3883Z" fill="white"/>
</svg>
