<svg width="300" height="300" viewBox="0 0 300 300" fill="none" xmlns="http://www.w3.org/2000/svg">
<g clip-path="url(#clip0_2636_6)">
<path d="M150 300C232.843 300 300 232.843 300 150C300 67.1573 232.843 0 150 0C67.1573 0 0 67.1573 0 150C0 232.843 67.1573 300 150 300Z" fill="url(#paint0_linear_2636_6)"/>
<path d="M122.5 218.75C117.64 218.75 118.466 216.915 116.79 212.288L102.5 165.259L212.5 100" fill="#C8DAEA"/>
<path d="M122.5 218.749C126.25 218.749 127.906 217.034 130 214.999L150 195.552L125.052 180.508" fill="#A9C9DD"/>
<path d="M125.05 180.512L185.5 225.173C192.399 228.98 197.376 227.008 199.095 218.77L223.701 102.816C226.22 92.7159 219.851 88.1334 213.251 91.1296L68.7639 146.843C58.9014 150.8 58.9601 156.302 66.9664 158.753L104.045 170.327L189.886 116.171C193.939 113.713 197.659 115.033 194.606 117.743" fill="url(#paint1_linear_2636_6)"/>
</g>
<defs>
<linearGradient id="paint0_linear_2636_6" x1="200.1" y1="50.1" x2="125.1" y2="225" gradientUnits="userSpaceOnUse">
<stop stop-color="#37AEE2"/>
<stop offset="1" stop-color="#1E96C8"/>
</linearGradient>
<linearGradient id="paint1_linear_2636_6" x1="168.805" y1="150.012" x2="192.214" y2="203.348" gradientUnits="userSpaceOnUse">
<stop stop-color="#EFF7FC"/>
<stop offset="1" stop-color="white"/>
</linearGradient>
<clipPath id="clip0_2636_6">
<rect width="300" height="300" fill="white"/>
</clipPath>
</defs>
</svg>
