<svg width="300" height="248" viewBox="0 0 300 248" fill="none" xmlns="http://www.w3.org/2000/svg">
<path d="M268.487 62.5373C268.669 65.1674 268.669 67.7975 268.669 70.4518C268.669 151.33 207.217 244.607 94.8501 244.607V244.559C61.6566 244.607 29.1525 235.081 1.20898 217.119C6.0356 217.701 10.8864 217.991 15.7493 218.004C43.2574 218.028 69.9791 208.78 91.6203 191.751C65.4791 191.254 42.5558 174.177 34.5477 149.245C43.705 151.015 53.1404 150.651 62.1283 148.191C33.6283 142.422 13.1243 117.333 13.1243 88.1958C13.1243 87.9292 13.1243 87.6747 13.1243 87.4202C21.6162 92.1592 31.1243 94.7893 40.8501 95.0801C14.0074 77.1058 5.73318 41.3269 21.9429 13.3534C52.959 51.5927 98.7211 74.8394 147.846 77.2998C142.923 56.0409 149.649 33.7639 165.519 18.8196C190.124 -4.35425 228.822 -3.16646 251.951 21.474C265.632 18.7712 278.745 13.7413 290.745 6.61457C286.185 20.7831 276.64 32.8185 263.89 40.4664C275.999 39.0362 287.83 35.788 298.971 30.8308C290.769 43.1449 280.439 53.8714 268.487 62.5373Z" fill="#1D9BF0"/>
</svg>
