<svg width="300" height="297" viewBox="0 0 300 297" fill="none" xmlns="http://www.w3.org/2000/svg">
<path d="M292.42 44.0599L157.788 284.807C155.008 289.777 147.866 289.806 145.045 284.86L7.74264 44.0831C4.66886 38.6928 9.27813 32.1637 15.3863 33.2555L150.163 57.3461C151.023 57.4998 151.903 57.4983 152.763 57.3416L284.721 33.29C290.809 32.1805 295.44 38.659 292.42 44.0599Z" fill="url(#paint0_linear_2632_23)"/>
<path d="M214.365 1.65854L114.733 21.1811C113.095 21.5019 111.883 22.8897 111.784 24.5551L105.655 128.065C105.511 130.503 107.75 132.395 110.129 131.847L137.868 125.445C140.464 124.846 142.809 127.132 142.276 129.742L134.034 170.098C133.48 172.814 136.03 175.137 138.682 174.331L155.815 169.126C158.471 168.319 161.023 170.648 160.461 173.367L147.365 236.757C146.545 240.722 151.819 242.884 154.019 239.484L155.488 237.214L236.674 75.1934C238.033 72.4806 235.689 69.3873 232.709 69.9622L204.157 75.4729C201.474 75.9902 199.191 73.4914 199.948 70.8663L218.584 6.2628C219.342 3.63323 217.051 1.13228 214.365 1.65854Z" fill="url(#paint1_linear_2632_23)"/>
<defs>
<linearGradient id="paint0_linear_2632_23" x1="4.39031" y1="24.6516" x2="171.951" y2="252.213" gradientUnits="userSpaceOnUse">
<stop stop-color="#41D1FF"/>
<stop offset="1" stop-color="#BD34FE"/>
</linearGradient>
<linearGradient id="paint1_linear_2632_23" x1="142.428" y1="6.95887" x2="172.739" y2="214.889" gradientUnits="userSpaceOnUse">
<stop stop-color="#FFEA83"/>
<stop offset="0.0833333" stop-color="#FFDD35"/>
<stop offset="1" stop-color="#FFA800"/>
</linearGradient>
</defs>
</svg>
